<mxfile host="app.diagrams.net" agent="Mozilla/5.0 (Windows NT 10.0; Win64; x64) AppleWebKit/537.36 (KHTML, like Gecko) Chrome/136.0.0.0 Safari/537.36" version="27.0.5">
  <diagram id="R2lEEEUBdFMjLlhIrx00" name="Page-1">
    <mxGraphModel dx="2791" dy="1184" grid="1" gridSize="10" guides="1" tooltips="1" connect="1" arrows="1" fold="1" page="1" pageScale="1" pageWidth="850" pageHeight="1100" math="0" shadow="0" extFonts="Permanent Marker^https://fonts.googleapis.com/css?family=Permanent+Marker">
      <root>
        <mxCell id="0" />
        <mxCell id="1" parent="0" />
        <mxCell id="V3qszUc2DDFbUSEGO7iu-2" value="CLIENTE" style="rounded=0;whiteSpace=wrap;html=1;fillColor=#A9C4EB;" parent="1" vertex="1">
          <mxGeometry x="155" y="238" width="120" height="60" as="geometry" />
        </mxCell>
        <mxCell id="V3qszUc2DDFbUSEGO7iu-3" value="DirecciÃ³n" style="ellipse;whiteSpace=wrap;html=1;" parent="1" vertex="1">
          <mxGeometry x="230" y="90" width="100" height="60" as="geometry" />
        </mxCell>
        <mxCell id="V3qszUc2DDFbUSEGO7iu-5" value="&lt;b&gt;DNI/NIF/NIE&lt;/b&gt;" style="ellipse;whiteSpace=wrap;html=1;" parent="1" vertex="1">
          <mxGeometry x="140" y="110" width="80" height="40" as="geometry" />
        </mxCell>
        <mxCell id="V3qszUc2DDFbUSEGO7iu-6" value="Nombre_apellidos" style="ellipse;whiteSpace=wrap;html=1;" parent="1" vertex="1">
          <mxGeometry x="30" y="120" width="100" height="70" as="geometry" />
        </mxCell>
        <mxCell id="V3qszUc2DDFbUSEGO7iu-7" value="Telf" style="ellipse;whiteSpace=wrap;html=1;" parent="1" vertex="1">
          <mxGeometry x="35" y="220" width="45" height="30" as="geometry" />
        </mxCell>
        <mxCell id="V3qszUc2DDFbUSEGO7iu-8" value="Email" style="ellipse;whiteSpace=wrap;html=1;" parent="1" vertex="1">
          <mxGeometry x="300" y="309" width="70" height="40" as="geometry" />
        </mxCell>
        <mxCell id="V3qszUc2DDFbUSEGO7iu-9" value="Fecha_caducidad_carnet" style="ellipse;whiteSpace=wrap;html=1;" parent="1" vertex="1">
          <mxGeometry x="-30" y="320" width="140" height="60" as="geometry" />
        </mxCell>
        <mxCell id="V3qszUc2DDFbUSEGO7iu-10" value="Edad" style="ellipse;whiteSpace=wrap;html=1;" parent="1" vertex="1">
          <mxGeometry x="-10" y="280" width="50" height="30" as="geometry" />
        </mxCell>
        <mxCell id="V3qszUc2DDFbUSEGO7iu-13" value="" style="endArrow=none;html=1;rounded=0;entryX=0.5;entryY=1;entryDx=0;entryDy=0;exitX=0.5;exitY=0;exitDx=0;exitDy=0;" parent="1" source="V3qszUc2DDFbUSEGO7iu-2" target="V3qszUc2DDFbUSEGO7iu-3" edge="1">
          <mxGeometry width="50" height="50" relative="1" as="geometry">
            <mxPoint x="220" y="240" as="sourcePoint" />
            <mxPoint x="270" y="190" as="targetPoint" />
          </mxGeometry>
        </mxCell>
        <mxCell id="V3qszUc2DDFbUSEGO7iu-14" value="" style="endArrow=none;html=1;rounded=0;exitX=0.417;exitY=0;exitDx=0;exitDy=0;exitPerimeter=0;entryX=0.5;entryY=1;entryDx=0;entryDy=0;" parent="1" source="V3qszUc2DDFbUSEGO7iu-2" target="V3qszUc2DDFbUSEGO7iu-5" edge="1">
          <mxGeometry width="50" height="50" relative="1" as="geometry">
            <mxPoint x="200" y="230" as="sourcePoint" />
            <mxPoint x="160" y="150" as="targetPoint" />
          </mxGeometry>
        </mxCell>
        <mxCell id="V3qszUc2DDFbUSEGO7iu-15" value="" style="endArrow=none;html=1;rounded=0;exitX=0;exitY=0.5;exitDx=0;exitDy=0;entryX=0.5;entryY=1;entryDx=0;entryDy=0;" parent="1" source="V3qszUc2DDFbUSEGO7iu-8" target="V3qszUc2DDFbUSEGO7iu-2" edge="1">
          <mxGeometry width="50" height="50" relative="1" as="geometry">
            <mxPoint x="210" y="370" as="sourcePoint" />
            <mxPoint x="220" y="300" as="targetPoint" />
          </mxGeometry>
        </mxCell>
        <mxCell id="V3qszUc2DDFbUSEGO7iu-16" value="" style="endArrow=none;html=1;rounded=0;exitX=0.5;exitY=0;exitDx=0;exitDy=0;entryX=0;entryY=0.5;entryDx=0;entryDy=0;" parent="1" source="V3qszUc2DDFbUSEGO7iu-9" target="V3qszUc2DDFbUSEGO7iu-2" edge="1">
          <mxGeometry width="50" height="50" relative="1" as="geometry">
            <mxPoint x="185" y="370" as="sourcePoint" />
            <mxPoint x="175" y="300" as="targetPoint" />
          </mxGeometry>
        </mxCell>
        <mxCell id="V3qszUc2DDFbUSEGO7iu-17" value="" style="endArrow=none;html=1;rounded=0;entryX=0;entryY=0.5;entryDx=0;entryDy=0;exitX=1;exitY=0.5;exitDx=0;exitDy=0;" parent="1" source="V3qszUc2DDFbUSEGO7iu-10" target="V3qszUc2DDFbUSEGO7iu-2" edge="1">
          <mxGeometry width="50" height="50" relative="1" as="geometry">
            <mxPoint x="105" y="300" as="sourcePoint" />
            <mxPoint x="145" y="280" as="targetPoint" />
          </mxGeometry>
        </mxCell>
        <mxCell id="V3qszUc2DDFbUSEGO7iu-18" value="" style="endArrow=none;html=1;rounded=0;entryX=0;entryY=0.5;entryDx=0;entryDy=0;exitX=1;exitY=0.5;exitDx=0;exitDy=0;" parent="1" source="V3qszUc2DDFbUSEGO7iu-7" target="V3qszUc2DDFbUSEGO7iu-2" edge="1">
          <mxGeometry width="50" height="50" relative="1" as="geometry">
            <mxPoint x="105" y="244.5" as="sourcePoint" />
            <mxPoint x="185" y="244.5" as="targetPoint" />
          </mxGeometry>
        </mxCell>
        <mxCell id="V3qszUc2DDFbUSEGO7iu-19" value="" style="endArrow=none;html=1;rounded=0;exitX=0.5;exitY=0;exitDx=0;exitDy=0;entryX=1;entryY=1;entryDx=0;entryDy=0;" parent="1" source="V3qszUc2DDFbUSEGO7iu-2" target="V3qszUc2DDFbUSEGO7iu-6" edge="1">
          <mxGeometry width="50" height="50" relative="1" as="geometry">
            <mxPoint x="120" y="250" as="sourcePoint" />
            <mxPoint x="80" y="190" as="targetPoint" />
          </mxGeometry>
        </mxCell>
        <mxCell id="V3qszUc2DDFbUSEGO7iu-20" value="REALIZA" style="rhombus;whiteSpace=wrap;html=1;fillColor=#FFF2CC;" parent="1" vertex="1">
          <mxGeometry x="400" y="230" width="80" height="80" as="geometry" />
        </mxCell>
        <mxCell id="V3qszUc2DDFbUSEGO7iu-21" value="Historial de alquiler" style="ellipse;whiteSpace=wrap;html=1;" parent="1" vertex="1">
          <mxGeometry x="380" y="100" width="120" height="70" as="geometry" />
        </mxCell>
        <mxCell id="V3qszUc2DDFbUSEGO7iu-22" value="" style="endArrow=none;html=1;rounded=0;" parent="1" edge="1">
          <mxGeometry width="50" height="50" relative="1" as="geometry">
            <mxPoint x="440" y="230" as="sourcePoint" />
            <mxPoint x="439.5" y="170" as="targetPoint" />
          </mxGeometry>
        </mxCell>
        <mxCell id="V3qszUc2DDFbUSEGO7iu-23" value="" style="endArrow=none;html=1;rounded=0;entryX=1;entryY=0.5;entryDx=0;entryDy=0;" parent="1" target="V3qszUc2DDFbUSEGO7iu-2" edge="1">
          <mxGeometry width="50" height="50" relative="1" as="geometry">
            <mxPoint x="400" y="269" as="sourcePoint" />
            <mxPoint x="280" y="269" as="targetPoint" />
          </mxGeometry>
        </mxCell>
        <mxCell id="V3qszUc2DDFbUSEGO7iu-24" value="0" style="text;html=1;align=center;verticalAlign=middle;resizable=0;points=[];autosize=1;strokeColor=none;fillColor=none;" parent="1" vertex="1">
          <mxGeometry x="290" y="208" width="30" height="30" as="geometry" />
        </mxCell>
        <mxCell id="V3qszUc2DDFbUSEGO7iu-25" value="N" style="text;html=1;align=center;verticalAlign=middle;resizable=0;points=[];autosize=1;strokeColor=none;fillColor=none;" parent="1" vertex="1">
          <mxGeometry x="375" y="238" width="30" height="30" as="geometry" />
        </mxCell>
        <mxCell id="V3qszUc2DDFbUSEGO7iu-27" value="RESERVA" style="rounded=0;whiteSpace=wrap;html=1;fillColor=#A9C4EB;" parent="1" vertex="1">
          <mxGeometry x="560" y="240" width="120" height="60" as="geometry" />
        </mxCell>
        <mxCell id="V3qszUc2DDFbUSEGO7iu-28" value="" style="endArrow=none;html=1;rounded=0;entryX=0;entryY=0.5;entryDx=0;entryDy=0;" parent="1" source="V3qszUc2DDFbUSEGO7iu-20" target="V3qszUc2DDFbUSEGO7iu-27" edge="1">
          <mxGeometry width="50" height="50" relative="1" as="geometry">
            <mxPoint x="460" y="320" as="sourcePoint" />
            <mxPoint x="510" y="270" as="targetPoint" />
          </mxGeometry>
        </mxCell>
        <mxCell id="V3qszUc2DDFbUSEGO7iu-29" value="REALIZA" style="rhombus;whiteSpace=wrap;html=1;fillColor=#FFF2CC;" parent="1" vertex="1">
          <mxGeometry x="580" y="300" width="80" height="80" as="geometry" />
        </mxCell>
        <mxCell id="V3qszUc2DDFbUSEGO7iu-30" value="PAGO" style="rounded=0;whiteSpace=wrap;html=1;fillColor=#A9C4EB;" parent="1" vertex="1">
          <mxGeometry x="560" y="440" width="120" height="60" as="geometry" />
        </mxCell>
        <mxCell id="V3qszUc2DDFbUSEGO7iu-31" value="" style="endArrow=none;html=1;rounded=0;exitX=0.5;exitY=0;exitDx=0;exitDy=0;" parent="1" source="V3qszUc2DDFbUSEGO7iu-30" edge="1">
          <mxGeometry width="50" height="50" relative="1" as="geometry">
            <mxPoint x="570" y="430" as="sourcePoint" />
            <mxPoint x="620" y="380" as="targetPoint" />
          </mxGeometry>
        </mxCell>
        <mxCell id="V3qszUc2DDFbUSEGO7iu-32" value="0" style="text;html=1;align=center;verticalAlign=middle;resizable=0;points=[];autosize=1;strokeColor=none;fillColor=none;" parent="1" vertex="1">
          <mxGeometry x="625" y="368" width="30" height="30" as="geometry" />
        </mxCell>
        <mxCell id="V3qszUc2DDFbUSEGO7iu-33" value="N" style="text;html=1;align=center;verticalAlign=middle;resizable=0;points=[];autosize=1;strokeColor=none;fillColor=none;" parent="1" vertex="1">
          <mxGeometry x="625" y="408" width="30" height="30" as="geometry" />
        </mxCell>
        <mxCell id="V3qszUc2DDFbUSEGO7iu-34" value="GENERA" style="rhombus;whiteSpace=wrap;html=1;fillColor=#FFF2CC;" parent="1" vertex="1">
          <mxGeometry x="580" y="560" width="80" height="80" as="geometry" />
        </mxCell>
        <mxCell id="V3qszUc2DDFbUSEGO7iu-35" value="" style="endArrow=none;html=1;rounded=0;exitX=0.5;exitY=0;exitDx=0;exitDy=0;" parent="1" source="V3qszUc2DDFbUSEGO7iu-34" edge="1">
          <mxGeometry width="50" height="50" relative="1" as="geometry">
            <mxPoint x="619.5" y="560" as="sourcePoint" />
            <mxPoint x="619.5" y="500" as="targetPoint" />
          </mxGeometry>
        </mxCell>
        <mxCell id="V3qszUc2DDFbUSEGO7iu-36" value="0" style="text;html=1;align=center;verticalAlign=middle;resizable=0;points=[];autosize=1;strokeColor=none;fillColor=none;" parent="1" vertex="1">
          <mxGeometry x="615" y="498" width="30" height="30" as="geometry" />
        </mxCell>
        <mxCell id="V3qszUc2DDFbUSEGO7iu-37" value="N" style="text;html=1;align=center;verticalAlign=middle;resizable=0;points=[];autosize=1;strokeColor=none;fillColor=none;" parent="1" vertex="1">
          <mxGeometry x="615" y="538" width="30" height="30" as="geometry" />
        </mxCell>
        <mxCell id="V3qszUc2DDFbUSEGO7iu-43" value="FACTURA" style="rounded=0;whiteSpace=wrap;html=1;fillColor=#A9C4EB;" parent="1" vertex="1">
          <mxGeometry x="575" y="690" width="90" height="60" as="geometry" />
        </mxCell>
        <mxCell id="V3qszUc2DDFbUSEGO7iu-44" value="id_factura" style="ellipse;whiteSpace=wrap;html=1;" parent="1" vertex="1">
          <mxGeometry x="363" y="685" width="125" height="70" as="geometry" />
        </mxCell>
        <mxCell id="V3qszUc2DDFbUSEGO7iu-47" value="" style="endArrow=none;html=1;rounded=0;exitX=1;exitY=0.5;exitDx=0;exitDy=0;entryX=0;entryY=0.5;entryDx=0;entryDy=0;" parent="1" source="V3qszUc2DDFbUSEGO7iu-44" target="V3qszUc2DDFbUSEGO7iu-43" edge="1">
          <mxGeometry width="50" height="50" relative="1" as="geometry">
            <mxPoint x="460" y="620" as="sourcePoint" />
            <mxPoint x="510" y="570" as="targetPoint" />
          </mxGeometry>
        </mxCell>
        <mxCell id="V3qszUc2DDFbUSEGO7iu-53" value="EMPLEADO" style="rounded=0;whiteSpace=wrap;html=1;fillColor=#A9C4EB;" parent="1" vertex="1">
          <mxGeometry x="1275" y="238" width="120" height="60" as="geometry" />
        </mxCell>
        <mxCell id="V3qszUc2DDFbUSEGO7iu-54" value="GESTIONADO" style="rhombus;whiteSpace=wrap;html=1;fillColor=#FFF2CC;" parent="1" vertex="1">
          <mxGeometry x="870" y="225" width="110" height="90" as="geometry" />
        </mxCell>
        <mxCell id="V3qszUc2DDFbUSEGO7iu-55" value="" style="endArrow=none;html=1;rounded=0;exitX=1;exitY=0.5;exitDx=0;exitDy=0;entryX=0;entryY=0.5;entryDx=0;entryDy=0;" parent="1" source="V3qszUc2DDFbUSEGO7iu-27" target="V3qszUc2DDFbUSEGO7iu-54" edge="1">
          <mxGeometry width="50" height="50" relative="1" as="geometry">
            <mxPoint x="930" y="560" as="sourcePoint" />
            <mxPoint x="980" y="510" as="targetPoint" />
          </mxGeometry>
        </mxCell>
        <mxCell id="V3qszUc2DDFbUSEGO7iu-56" value="0" style="text;html=1;align=center;verticalAlign=middle;resizable=0;points=[];autosize=1;strokeColor=none;fillColor=none;" parent="1" vertex="1">
          <mxGeometry x="675" y="238" width="30" height="30" as="geometry" />
        </mxCell>
        <mxCell id="V3qszUc2DDFbUSEGO7iu-57" value="N" style="text;html=1;align=center;verticalAlign=middle;resizable=0;points=[];autosize=1;strokeColor=none;fillColor=none;" parent="1" vertex="1">
          <mxGeometry x="830" y="240" width="30" height="30" as="geometry" />
        </mxCell>
        <mxCell id="V3qszUc2DDFbUSEGO7iu-60" value="" style="endArrow=none;html=1;rounded=0;exitX=1;exitY=0.5;exitDx=0;exitDy=0;entryX=0;entryY=0.5;entryDx=0;entryDy=0;" parent="1" source="V3qszUc2DDFbUSEGO7iu-54" target="V3qszUc2DDFbUSEGO7iu-53" edge="1">
          <mxGeometry width="50" height="50" relative="1" as="geometry">
            <mxPoint x="1060" y="440" as="sourcePoint" />
            <mxPoint x="1110" y="390" as="targetPoint" />
          </mxGeometry>
        </mxCell>
        <mxCell id="V3qszUc2DDFbUSEGO7iu-61" value="&lt;b&gt;id_empleado&lt;/b&gt;" style="ellipse;whiteSpace=wrap;html=1;" parent="1" vertex="1">
          <mxGeometry x="1180" y="170" width="85" height="60" as="geometry" />
        </mxCell>
        <mxCell id="V3qszUc2DDFbUSEGO7iu-62" value="nombre" style="ellipse;whiteSpace=wrap;html=1;" parent="1" vertex="1">
          <mxGeometry x="1290" y="165" width="90" height="30" as="geometry" />
        </mxCell>
        <mxCell id="V3qszUc2DDFbUSEGO7iu-63" value="apellidos" style="ellipse;whiteSpace=wrap;html=1;" parent="1" vertex="1">
          <mxGeometry x="1420" y="198" width="60" height="40" as="geometry" />
        </mxCell>
        <mxCell id="V3qszUc2DDFbUSEGO7iu-64" value="DNI" style="ellipse;whiteSpace=wrap;html=1;" parent="1" vertex="1">
          <mxGeometry x="1250" y="131" width="40" height="47" as="geometry" />
        </mxCell>
        <mxCell id="V3qszUc2DDFbUSEGO7iu-65" value="" style="endArrow=none;html=1;rounded=0;exitX=1;exitY=1;exitDx=0;exitDy=0;entryX=0.5;entryY=0;entryDx=0;entryDy=0;" parent="1" source="V3qszUc2DDFbUSEGO7iu-61" target="V3qszUc2DDFbUSEGO7iu-53" edge="1">
          <mxGeometry width="50" height="50" relative="1" as="geometry">
            <mxPoint x="1330" y="220" as="sourcePoint" />
            <mxPoint x="1380" y="170" as="targetPoint" />
          </mxGeometry>
        </mxCell>
        <mxCell id="V3qszUc2DDFbUSEGO7iu-66" value="" style="endArrow=none;html=1;rounded=0;entryX=0.5;entryY=1;entryDx=0;entryDy=0;exitX=0.5;exitY=0;exitDx=0;exitDy=0;" parent="1" source="V3qszUc2DDFbUSEGO7iu-53" target="V3qszUc2DDFbUSEGO7iu-62" edge="1">
          <mxGeometry width="50" height="50" relative="1" as="geometry">
            <mxPoint x="1320" y="237" as="sourcePoint" />
            <mxPoint x="1380" y="170" as="targetPoint" />
          </mxGeometry>
        </mxCell>
        <mxCell id="V3qszUc2DDFbUSEGO7iu-67" value="" style="endArrow=none;html=1;rounded=0;exitX=0.583;exitY=0.033;exitDx=0;exitDy=0;exitPerimeter=0;entryX=0;entryY=0.5;entryDx=0;entryDy=0;" parent="1" source="V3qszUc2DDFbUSEGO7iu-53" target="V3qszUc2DDFbUSEGO7iu-63" edge="1">
          <mxGeometry width="50" height="50" relative="1" as="geometry">
            <mxPoint x="1400" y="240" as="sourcePoint" />
            <mxPoint x="1450" y="190" as="targetPoint" />
          </mxGeometry>
        </mxCell>
        <mxCell id="V3qszUc2DDFbUSEGO7iu-68" value="Telf" style="ellipse;whiteSpace=wrap;html=1;" parent="1" vertex="1">
          <mxGeometry x="1380" y="160" width="45" height="35" as="geometry" />
        </mxCell>
        <mxCell id="V3qszUc2DDFbUSEGO7iu-70" value="" style="endArrow=none;html=1;rounded=0;exitX=0.5;exitY=1;exitDx=0;exitDy=0;entryX=0.25;entryY=0;entryDx=0;entryDy=0;" parent="1" source="V3qszUc2DDFbUSEGO7iu-64" target="V3qszUc2DDFbUSEGO7iu-53" edge="1">
          <mxGeometry width="50" height="50" relative="1" as="geometry">
            <mxPoint x="1275" y="350" as="sourcePoint" />
            <mxPoint x="1325" y="300" as="targetPoint" />
          </mxGeometry>
        </mxCell>
        <mxCell id="V3qszUc2DDFbUSEGO7iu-71" value="" style="endArrow=none;html=1;rounded=0;exitX=0.5;exitY=1;exitDx=0;exitDy=0;entryX=0.75;entryY=0;entryDx=0;entryDy=0;" parent="1" source="V3qszUc2DDFbUSEGO7iu-68" target="V3qszUc2DDFbUSEGO7iu-53" edge="1">
          <mxGeometry width="50" height="50" relative="1" as="geometry">
            <mxPoint x="1280" y="350" as="sourcePoint" />
            <mxPoint x="1320" y="300" as="targetPoint" />
          </mxGeometry>
        </mxCell>
        <mxCell id="V3qszUc2DDFbUSEGO7iu-72" value="PaÃ­s" style="ellipse;whiteSpace=wrap;html=1;" parent="1" vertex="1">
          <mxGeometry x="220" y="20" width="55" height="40" as="geometry" />
        </mxCell>
        <mxCell id="V3qszUc2DDFbUSEGO7iu-73" value="Calle" style="ellipse;whiteSpace=wrap;html=1;" parent="1" vertex="1">
          <mxGeometry x="280" y="20" width="50" height="40" as="geometry" />
        </mxCell>
        <mxCell id="V3qszUc2DDFbUSEGO7iu-74" value="NÂº" style="ellipse;whiteSpace=wrap;html=1;" parent="1" vertex="1">
          <mxGeometry x="340" y="25" width="40" height="30" as="geometry" />
        </mxCell>
        <mxCell id="V3qszUc2DDFbUSEGO7iu-76" value="" style="endArrow=none;html=1;rounded=0;exitX=0.5;exitY=0;exitDx=0;exitDy=0;entryX=0.5;entryY=1;entryDx=0;entryDy=0;" parent="1" source="V3qszUc2DDFbUSEGO7iu-3" target="V3qszUc2DDFbUSEGO7iu-72" edge="1">
          <mxGeometry width="50" height="50" relative="1" as="geometry">
            <mxPoint x="980" y="510" as="sourcePoint" />
            <mxPoint x="1030" y="460" as="targetPoint" />
          </mxGeometry>
        </mxCell>
        <mxCell id="V3qszUc2DDFbUSEGO7iu-77" value="" style="endArrow=none;html=1;rounded=0;exitX=0.5;exitY=0;exitDx=0;exitDy=0;entryX=0.5;entryY=1;entryDx=0;entryDy=0;" parent="1" source="V3qszUc2DDFbUSEGO7iu-3" target="V3qszUc2DDFbUSEGO7iu-73" edge="1">
          <mxGeometry width="50" height="50" relative="1" as="geometry">
            <mxPoint x="380" y="100" as="sourcePoint" />
            <mxPoint x="430" y="50" as="targetPoint" />
          </mxGeometry>
        </mxCell>
        <mxCell id="V3qszUc2DDFbUSEGO7iu-78" value="" style="endArrow=none;html=1;rounded=0;exitX=0.5;exitY=0;exitDx=0;exitDy=0;entryX=0.5;entryY=1;entryDx=0;entryDy=0;" parent="1" source="V3qszUc2DDFbUSEGO7iu-3" target="V3qszUc2DDFbUSEGO7iu-74" edge="1">
          <mxGeometry width="50" height="50" relative="1" as="geometry">
            <mxPoint x="350" y="100" as="sourcePoint" />
            <mxPoint x="400" y="50" as="targetPoint" />
          </mxGeometry>
        </mxCell>
        <mxCell id="V3qszUc2DDFbUSEGO7iu-80" value="&lt;b&gt;id_cliente&lt;/b&gt;" style="ellipse;whiteSpace=wrap;html=1;" parent="1" vertex="1">
          <mxGeometry x="280" y="349" width="65" height="52" as="geometry" />
        </mxCell>
        <mxCell id="V3qszUc2DDFbUSEGO7iu-81" value="" style="endArrow=none;html=1;rounded=0;entryX=0.5;entryY=1;entryDx=0;entryDy=0;exitX=0;exitY=0;exitDx=0;exitDy=0;" parent="1" source="V3qszUc2DDFbUSEGO7iu-80" target="V3qszUc2DDFbUSEGO7iu-2" edge="1">
          <mxGeometry width="50" height="50" relative="1" as="geometry">
            <mxPoint x="110" y="600" as="sourcePoint" />
            <mxPoint x="160" y="550" as="targetPoint" />
          </mxGeometry>
        </mxCell>
        <mxCell id="V3qszUc2DDFbUSEGO7iu-82" value="&lt;b&gt;id_reserva&lt;/b&gt;" style="ellipse;whiteSpace=wrap;html=1;" parent="1" vertex="1">
          <mxGeometry x="543" y="105" width="72" height="50" as="geometry" />
        </mxCell>
        <mxCell id="V3qszUc2DDFbUSEGO7iu-83" value="fecha_inicio" style="ellipse;whiteSpace=wrap;html=1;" parent="1" vertex="1">
          <mxGeometry x="625" y="105" width="75" height="50" as="geometry" />
        </mxCell>
        <mxCell id="V3qszUc2DDFbUSEGO7iu-84" value="fecha_fin" style="ellipse;whiteSpace=wrap;html=1;" parent="1" vertex="1">
          <mxGeometry x="502.5" y="150" width="60" height="42" as="geometry" />
        </mxCell>
        <mxCell id="V3qszUc2DDFbUSEGO7iu-85" value="estado_reserva" style="ellipse;whiteSpace=wrap;html=1;" parent="1" vertex="1">
          <mxGeometry x="670" y="155" width="90" height="52" as="geometry" />
        </mxCell>
        <mxCell id="V3qszUc2DDFbUSEGO7iu-87" value="" style="endArrow=none;html=1;rounded=0;entryX=0.5;entryY=1;entryDx=0;entryDy=0;exitX=0.5;exitY=0;exitDx=0;exitDy=0;" parent="1" source="V3qszUc2DDFbUSEGO7iu-27" target="V3qszUc2DDFbUSEGO7iu-83" edge="1">
          <mxGeometry width="50" height="50" relative="1" as="geometry">
            <mxPoint x="560" y="230" as="sourcePoint" />
            <mxPoint x="610" y="180" as="targetPoint" />
          </mxGeometry>
        </mxCell>
        <mxCell id="V3qszUc2DDFbUSEGO7iu-88" value="" style="endArrow=none;html=1;rounded=0;entryX=0.5;entryY=1;entryDx=0;entryDy=0;exitX=0.5;exitY=0;exitDx=0;exitDy=0;" parent="1" source="V3qszUc2DDFbUSEGO7iu-27" target="V3qszUc2DDFbUSEGO7iu-82" edge="1">
          <mxGeometry width="50" height="50" relative="1" as="geometry">
            <mxPoint x="550" y="240" as="sourcePoint" />
            <mxPoint x="600" y="190" as="targetPoint" />
          </mxGeometry>
        </mxCell>
        <mxCell id="V3qszUc2DDFbUSEGO7iu-89" value="" style="endArrow=none;html=1;rounded=0;entryX=0.5;entryY=1;entryDx=0;entryDy=0;exitX=0.5;exitY=0;exitDx=0;exitDy=0;" parent="1" source="V3qszUc2DDFbUSEGO7iu-27" target="V3qszUc2DDFbUSEGO7iu-85" edge="1">
          <mxGeometry width="50" height="50" relative="1" as="geometry">
            <mxPoint x="520" y="250" as="sourcePoint" />
            <mxPoint x="570" y="200" as="targetPoint" />
          </mxGeometry>
        </mxCell>
        <mxCell id="V3qszUc2DDFbUSEGO7iu-90" value="" style="endArrow=none;html=1;rounded=0;entryX=0.667;entryY=1.006;entryDx=0;entryDy=0;entryPerimeter=0;exitX=0.5;exitY=0;exitDx=0;exitDy=0;" parent="1" source="V3qszUc2DDFbUSEGO7iu-27" target="V3qszUc2DDFbUSEGO7iu-84" edge="1">
          <mxGeometry width="50" height="50" relative="1" as="geometry">
            <mxPoint x="500" y="270" as="sourcePoint" />
            <mxPoint x="550" y="220" as="targetPoint" />
          </mxGeometry>
        </mxCell>
        <mxCell id="V3qszUc2DDFbUSEGO7iu-119" style="edgeStyle=orthogonalEdgeStyle;rounded=0;orthogonalLoop=1;jettySize=auto;html=1;exitX=0.5;exitY=0;exitDx=0;exitDy=0;entryX=0.5;entryY=1;entryDx=0;entryDy=0;" parent="1" source="V3qszUc2DDFbUSEGO7iu-91" target="V3qszUc2DDFbUSEGO7iu-2" edge="1">
          <mxGeometry relative="1" as="geometry">
            <Array as="points">
              <mxPoint x="-20" y="580" />
              <mxPoint x="215" y="580" />
            </Array>
          </mxGeometry>
        </mxCell>
        <mxCell id="V3qszUc2DDFbUSEGO7iu-91" value="VEHICULO" style="rounded=0;whiteSpace=wrap;html=1;fillColor=#A9C4EB;" parent="1" vertex="1">
          <mxGeometry x="-80" y="660" width="120" height="60" as="geometry" />
        </mxCell>
        <mxCell id="V3qszUc2DDFbUSEGO7iu-93" value="&lt;b&gt;id_vehÃ­culo&lt;/b&gt;" style="ellipse;whiteSpace=wrap;html=1;" parent="1" vertex="1">
          <mxGeometry x="-260" y="580" width="80" height="50" as="geometry" />
        </mxCell>
        <mxCell id="V3qszUc2DDFbUSEGO7iu-94" value="marca" style="ellipse;whiteSpace=wrap;html=1;" parent="1" vertex="1">
          <mxGeometry x="-170" y="560" width="60" height="40" as="geometry" />
        </mxCell>
        <mxCell id="V3qszUc2DDFbUSEGO7iu-95" value="modelo" style="ellipse;whiteSpace=wrap;html=1;" parent="1" vertex="1">
          <mxGeometry x="-110" y="520" width="60" height="45" as="geometry" />
        </mxCell>
        <mxCell id="V3qszUc2DDFbUSEGO7iu-96" value="matricula" style="ellipse;whiteSpace=wrap;html=1;" parent="1" vertex="1">
          <mxGeometry x="-240" y="514" width="72" height="57" as="geometry" />
        </mxCell>
        <mxCell id="V3qszUc2DDFbUSEGO7iu-97" value="color" style="ellipse;whiteSpace=wrap;html=1;" parent="1" vertex="1">
          <mxGeometry x="-60" y="480" width="50" height="40" as="geometry" />
        </mxCell>
        <mxCell id="V3qszUc2DDFbUSEGO7iu-98" value="tipo" style="ellipse;whiteSpace=wrap;html=1;" parent="1" vertex="1">
          <mxGeometry x="-160" y="506" width="50" height="32" as="geometry" />
        </mxCell>
        <mxCell id="V3qszUc2DDFbUSEGO7iu-104" value="" style="endArrow=none;html=1;rounded=0;exitX=0.25;exitY=0;exitDx=0;exitDy=0;entryX=1;entryY=1;entryDx=0;entryDy=0;" parent="1" source="V3qszUc2DDFbUSEGO7iu-91" target="V3qszUc2DDFbUSEGO7iu-93" edge="1">
          <mxGeometry width="50" height="50" relative="1" as="geometry">
            <mxPoint x="50" y="510" as="sourcePoint" />
            <mxPoint x="100" y="460" as="targetPoint" />
          </mxGeometry>
        </mxCell>
        <mxCell id="V3qszUc2DDFbUSEGO7iu-105" value="" style="endArrow=none;html=1;rounded=0;exitX=1;exitY=1;exitDx=0;exitDy=0;entryX=0.25;entryY=0;entryDx=0;entryDy=0;" parent="1" source="V3qszUc2DDFbUSEGO7iu-94" target="V3qszUc2DDFbUSEGO7iu-91" edge="1">
          <mxGeometry width="50" height="50" relative="1" as="geometry">
            <mxPoint x="90" y="540" as="sourcePoint" />
            <mxPoint x="140" y="490" as="targetPoint" />
          </mxGeometry>
        </mxCell>
        <mxCell id="V3qszUc2DDFbUSEGO7iu-106" value="" style="endArrow=none;html=1;rounded=0;exitX=0.625;exitY=0.956;exitDx=0;exitDy=0;exitPerimeter=0;entryX=0;entryY=0.5;entryDx=0;entryDy=0;" parent="1" source="V3qszUc2DDFbUSEGO7iu-96" target="V3qszUc2DDFbUSEGO7iu-91" edge="1">
          <mxGeometry width="50" height="50" relative="1" as="geometry">
            <mxPoint x="130" y="620" as="sourcePoint" />
            <mxPoint x="180" y="570" as="targetPoint" />
          </mxGeometry>
        </mxCell>
        <mxCell id="V3qszUc2DDFbUSEGO7iu-107" value="" style="endArrow=none;html=1;rounded=0;exitX=0.5;exitY=1;exitDx=0;exitDy=0;entryX=0.25;entryY=0;entryDx=0;entryDy=0;" parent="1" source="V3qszUc2DDFbUSEGO7iu-98" target="V3qszUc2DDFbUSEGO7iu-91" edge="1">
          <mxGeometry width="50" height="50" relative="1" as="geometry">
            <mxPoint x="60" y="610" as="sourcePoint" />
            <mxPoint x="110" y="560" as="targetPoint" />
          </mxGeometry>
        </mxCell>
        <mxCell id="V3qszUc2DDFbUSEGO7iu-108" value="" style="endArrow=none;html=1;rounded=0;entryX=0.5;entryY=1;entryDx=0;entryDy=0;exitX=0.25;exitY=0;exitDx=0;exitDy=0;" parent="1" source="V3qszUc2DDFbUSEGO7iu-91" target="V3qszUc2DDFbUSEGO7iu-97" edge="1">
          <mxGeometry width="50" height="50" relative="1" as="geometry">
            <mxPoint x="20" y="620" as="sourcePoint" />
            <mxPoint x="70" y="570" as="targetPoint" />
          </mxGeometry>
        </mxCell>
        <mxCell id="V3qszUc2DDFbUSEGO7iu-109" value="" style="endArrow=none;html=1;rounded=0;exitX=0.667;exitY=0.967;exitDx=0;exitDy=0;exitPerimeter=0;entryX=0.25;entryY=0;entryDx=0;entryDy=0;" parent="1" source="V3qszUc2DDFbUSEGO7iu-95" target="V3qszUc2DDFbUSEGO7iu-91" edge="1">
          <mxGeometry width="50" height="50" relative="1" as="geometry">
            <mxPoint x="-10" y="620" as="sourcePoint" />
            <mxPoint x="40" y="570" as="targetPoint" />
          </mxGeometry>
        </mxCell>
        <mxCell id="V3qszUc2DDFbUSEGO7iu-120" style="edgeStyle=orthogonalEdgeStyle;rounded=0;orthogonalLoop=1;jettySize=auto;html=1;exitX=0.5;exitY=1;exitDx=0;exitDy=0;entryX=0.5;entryY=0;entryDx=0;entryDy=0;" parent="1" source="V3qszUc2DDFbUSEGO7iu-110" target="V3qszUc2DDFbUSEGO7iu-113" edge="1">
          <mxGeometry relative="1" as="geometry" />
        </mxCell>
        <mxCell id="V3qszUc2DDFbUSEGO7iu-110" value="MANTINIMIENTO" style="rounded=0;whiteSpace=wrap;html=1;fillColor=#A9C4EB;" parent="1" vertex="1">
          <mxGeometry x="-80" y="910" width="120" height="60" as="geometry" />
        </mxCell>
        <mxCell id="V3qszUc2DDFbUSEGO7iu-111" value="&lt;b&gt;id_mantinimiento&lt;/b&gt;" style="ellipse;whiteSpace=wrap;html=1;" parent="1" vertex="1">
          <mxGeometry x="-281" y="892.5" width="122" height="95" as="geometry" />
        </mxCell>
        <mxCell id="V3qszUc2DDFbUSEGO7iu-112" value="" style="endArrow=none;html=1;rounded=0;exitX=1;exitY=0.5;exitDx=0;exitDy=0;entryX=0;entryY=0.5;entryDx=0;entryDy=0;" parent="1" source="V3qszUc2DDFbUSEGO7iu-111" target="V3qszUc2DDFbUSEGO7iu-110" edge="1">
          <mxGeometry width="50" height="50" relative="1" as="geometry">
            <mxPoint x="-130" y="990" as="sourcePoint" />
            <mxPoint x="-80" y="940" as="targetPoint" />
          </mxGeometry>
        </mxCell>
        <mxCell id="bRxvMcQ0jLsNjaqWg4bf-6" style="edgeStyle=none;curved=1;rounded=0;orthogonalLoop=1;jettySize=auto;html=1;exitX=1;exitY=0.5;exitDx=0;exitDy=0;entryX=0;entryY=0.5;entryDx=0;entryDy=0;fontSize=12;startSize=8;endSize=8;" edge="1" parent="1" source="V3qszUc2DDFbUSEGO7iu-113" target="bRxvMcQ0jLsNjaqWg4bf-4">
          <mxGeometry relative="1" as="geometry" />
        </mxCell>
        <mxCell id="V3qszUc2DDFbUSEGO7iu-113" value="INCIDENCIA" style="rounded=0;whiteSpace=wrap;html=1;fillColor=#A9C4EB;" parent="1" vertex="1">
          <mxGeometry x="-80" y="1040" width="120" height="60" as="geometry" />
        </mxCell>
        <mxCell id="V3qszUc2DDFbUSEGO7iu-114" value="" style="endArrow=none;html=1;rounded=0;exitX=0.5;exitY=0;exitDx=0;exitDy=0;entryX=0.5;entryY=1;entryDx=0;entryDy=0;" parent="1" source="V3qszUc2DDFbUSEGO7iu-115" target="V3qszUc2DDFbUSEGO7iu-113" edge="1">
          <mxGeometry width="50" height="50" relative="1" as="geometry">
            <mxPoint x="50" y="1140" as="sourcePoint" />
            <mxPoint x="100" y="1090" as="targetPoint" />
          </mxGeometry>
        </mxCell>
        <mxCell id="V3qszUc2DDFbUSEGO7iu-115" value="id_reporta" style="ellipse;whiteSpace=wrap;html=1;" parent="1" vertex="1">
          <mxGeometry x="-70" y="1150" width="100" height="80" as="geometry" />
        </mxCell>
        <mxCell id="V3qszUc2DDFbUSEGO7iu-117" value="" style="endArrow=classic;startArrow=classic;html=1;rounded=0;entryX=1;entryY=0.5;entryDx=0;entryDy=0;" parent="1" source="V3qszUc2DDFbUSEGO7iu-110" target="V3qszUc2DDFbUSEGO7iu-91" edge="1">
          <mxGeometry width="50" height="50" relative="1" as="geometry">
            <mxPoint x="40.00000000000023" y="940" as="sourcePoint" />
            <mxPoint x="40.00000000000023" y="810" as="targetPoint" />
            <Array as="points">
              <mxPoint x="80" y="940" />
              <mxPoint x="80" y="690" />
            </Array>
          </mxGeometry>
        </mxCell>
        <mxCell id="V3qszUc2DDFbUSEGO7iu-118" value="REPORTA" style="text;html=1;align=center;verticalAlign=middle;resizable=0;points=[];autosize=1;strokeColor=none;fillColor=none;" parent="1" vertex="1">
          <mxGeometry x="10" y="790" width="80" height="30" as="geometry" />
        </mxCell>
        <mxCell id="V3qszUc2DDFbUSEGO7iu-121" value="id_pago" style="ellipse;whiteSpace=wrap;html=1;" parent="1" vertex="1">
          <mxGeometry x="460" y="402" width="60" height="42" as="geometry" />
        </mxCell>
        <mxCell id="V3qszUc2DDFbUSEGO7iu-122" value="fecha_pago" style="ellipse;whiteSpace=wrap;html=1;" parent="1" vertex="1">
          <mxGeometry x="453.75" y="446.5" width="70" height="47" as="geometry" />
        </mxCell>
        <mxCell id="V3qszUc2DDFbUSEGO7iu-124" value="" style="endArrow=none;html=1;rounded=0;exitX=1;exitY=0.5;exitDx=0;exitDy=0;entryX=0;entryY=0.5;entryDx=0;entryDy=0;" parent="1" source="V3qszUc2DDFbUSEGO7iu-122" target="V3qszUc2DDFbUSEGO7iu-30" edge="1">
          <mxGeometry width="50" height="50" relative="1" as="geometry">
            <mxPoint x="590" y="510" as="sourcePoint" />
            <mxPoint x="640" y="460" as="targetPoint" />
          </mxGeometry>
        </mxCell>
        <mxCell id="V3qszUc2DDFbUSEGO7iu-125" value="" style="endArrow=none;html=1;rounded=0;exitX=1;exitY=0.5;exitDx=0;exitDy=0;entryX=0;entryY=0.5;entryDx=0;entryDy=0;" parent="1" source="V3qszUc2DDFbUSEGO7iu-121" target="V3qszUc2DDFbUSEGO7iu-30" edge="1">
          <mxGeometry width="50" height="50" relative="1" as="geometry">
            <mxPoint x="590" y="510" as="sourcePoint" />
            <mxPoint x="640" y="460" as="targetPoint" />
          </mxGeometry>
        </mxCell>
        <mxCell id="V3qszUc2DDFbUSEGO7iu-136" style="edgeStyle=orthogonalEdgeStyle;rounded=0;orthogonalLoop=1;jettySize=auto;html=1;exitX=0.5;exitY=0;exitDx=0;exitDy=0;entryX=0.5;entryY=1;entryDx=0;entryDy=0;" parent="1" source="V3qszUc2DDFbUSEGO7iu-126" target="V3qszUc2DDFbUSEGO7iu-53" edge="1">
          <mxGeometry relative="1" as="geometry" />
        </mxCell>
        <mxCell id="V3qszUc2DDFbUSEGO7iu-126" value="SUCURSAL" style="rounded=0;whiteSpace=wrap;html=1;fillColor=#A9C4EB;" parent="1" vertex="1">
          <mxGeometry x="1275" y="408" width="120" height="60" as="geometry" />
        </mxCell>
        <mxCell id="V3qszUc2DDFbUSEGO7iu-127" value="&lt;b&gt;id_sucursal&lt;/b&gt;" style="ellipse;whiteSpace=wrap;html=1;" parent="1" vertex="1">
          <mxGeometry x="1512.5" y="377" width="85" height="63" as="geometry" />
        </mxCell>
        <mxCell id="V3qszUc2DDFbUSEGO7iu-128" value="nombre" style="ellipse;whiteSpace=wrap;html=1;" parent="1" vertex="1">
          <mxGeometry x="1510" y="325" width="90" height="30" as="geometry" />
        </mxCell>
        <mxCell id="V3qszUc2DDFbUSEGO7iu-129" value="direccion" style="ellipse;whiteSpace=wrap;html=1;" parent="1" vertex="1">
          <mxGeometry x="1515" y="451" width="80" height="55" as="geometry" />
        </mxCell>
        <mxCell id="V3qszUc2DDFbUSEGO7iu-131" value="ciudad" style="ellipse;whiteSpace=wrap;html=1;" parent="1" vertex="1">
          <mxGeometry x="160" y="20" width="40" height="40" as="geometry" />
        </mxCell>
        <mxCell id="V3qszUc2DDFbUSEGO7iu-132" value="" style="endArrow=none;html=1;rounded=0;exitX=0.5;exitY=1;exitDx=0;exitDy=0;entryX=0.5;entryY=0;entryDx=0;entryDy=0;" parent="1" source="V3qszUc2DDFbUSEGO7iu-131" target="V3qszUc2DDFbUSEGO7iu-3" edge="1">
          <mxGeometry width="50" height="50" relative="1" as="geometry">
            <mxPoint x="450" y="510" as="sourcePoint" />
            <mxPoint x="500" y="460" as="targetPoint" />
          </mxGeometry>
        </mxCell>
        <mxCell id="V3qszUc2DDFbUSEGO7iu-133" value="" style="endArrow=none;html=1;rounded=0;exitX=0;exitY=1;exitDx=0;exitDy=0;entryX=1;entryY=0.5;entryDx=0;entryDy=0;" parent="1" source="V3qszUc2DDFbUSEGO7iu-128" target="V3qszUc2DDFbUSEGO7iu-126" edge="1">
          <mxGeometry width="50" height="50" relative="1" as="geometry">
            <mxPoint x="1370" y="530" as="sourcePoint" />
            <mxPoint x="1420" y="480" as="targetPoint" />
          </mxGeometry>
        </mxCell>
        <mxCell id="V3qszUc2DDFbUSEGO7iu-134" value="" style="endArrow=none;html=1;rounded=0;entryX=0;entryY=0.5;entryDx=0;entryDy=0;exitX=1;exitY=0.5;exitDx=0;exitDy=0;" parent="1" source="V3qszUc2DDFbUSEGO7iu-126" target="V3qszUc2DDFbUSEGO7iu-127" edge="1">
          <mxGeometry width="50" height="50" relative="1" as="geometry">
            <mxPoint x="1450" y="480" as="sourcePoint" />
            <mxPoint x="1500" y="430" as="targetPoint" />
          </mxGeometry>
        </mxCell>
        <mxCell id="V3qszUc2DDFbUSEGO7iu-135" value="" style="endArrow=none;html=1;rounded=0;exitX=1;exitY=0.5;exitDx=0;exitDy=0;entryX=0;entryY=0.5;entryDx=0;entryDy=0;" parent="1" source="V3qszUc2DDFbUSEGO7iu-126" target="V3qszUc2DDFbUSEGO7iu-129" edge="1">
          <mxGeometry width="50" height="50" relative="1" as="geometry">
            <mxPoint x="1410" y="550" as="sourcePoint" />
            <mxPoint x="1460" y="500" as="targetPoint" />
          </mxGeometry>
        </mxCell>
        <mxCell id="V3qszUc2DDFbUSEGO7iu-137" value="metodo_pago" style="ellipse;whiteSpace=wrap;html=1;" parent="1" vertex="1">
          <mxGeometry x="448.75" y="500" width="82.5" height="62" as="geometry" />
        </mxCell>
        <mxCell id="V3qszUc2DDFbUSEGO7iu-138" value="" style="endArrow=none;html=1;rounded=0;exitX=1;exitY=0;exitDx=0;exitDy=0;entryX=0;entryY=0.5;entryDx=0;entryDy=0;" parent="1" source="V3qszUc2DDFbUSEGO7iu-137" target="V3qszUc2DDFbUSEGO7iu-30" edge="1">
          <mxGeometry width="50" height="50" relative="1" as="geometry">
            <mxPoint x="480" y="510" as="sourcePoint" />
            <mxPoint x="530" y="460" as="targetPoint" />
          </mxGeometry>
        </mxCell>
        <mxCell id="bRxvMcQ0jLsNjaqWg4bf-1" value="" style="endArrow=none;html=1;rounded=0;fontSize=12;startSize=8;endSize=8;curved=1;exitX=0.5;exitY=0;exitDx=0;exitDy=0;entryX=0.5;entryY=1;entryDx=0;entryDy=0;" edge="1" parent="1" source="V3qszUc2DDFbUSEGO7iu-43" target="V3qszUc2DDFbUSEGO7iu-34">
          <mxGeometry width="50" height="50" relative="1" as="geometry">
            <mxPoint x="520" y="660" as="sourcePoint" />
            <mxPoint x="570" y="610" as="targetPoint" />
          </mxGeometry>
        </mxCell>
        <mxCell id="bRxvMcQ0jLsNjaqWg4bf-2" value="historial" style="ellipse;whiteSpace=wrap;html=1;" vertex="1" parent="1">
          <mxGeometry x="-270" y="1000" width="120" height="80" as="geometry" />
        </mxCell>
        <mxCell id="bRxvMcQ0jLsNjaqWg4bf-3" value="" style="endArrow=none;html=1;rounded=0;fontSize=12;startSize=8;endSize=8;curved=1;exitX=1;exitY=0;exitDx=0;exitDy=0;entryX=0;entryY=0.5;entryDx=0;entryDy=0;" edge="1" parent="1" source="bRxvMcQ0jLsNjaqWg4bf-2" target="V3qszUc2DDFbUSEGO7iu-110">
          <mxGeometry width="50" height="50" relative="1" as="geometry">
            <mxPoint x="660" y="660" as="sourcePoint" />
            <mxPoint x="710" y="610" as="targetPoint" />
          </mxGeometry>
        </mxCell>
        <mxCell id="bRxvMcQ0jLsNjaqWg4bf-5" style="edgeStyle=none;curved=1;rounded=0;orthogonalLoop=1;jettySize=auto;html=1;exitX=1;exitY=0.5;exitDx=0;exitDy=0;fontSize=12;startSize=8;endSize=8;" edge="1" parent="1" source="bRxvMcQ0jLsNjaqWg4bf-4">
          <mxGeometry relative="1" as="geometry">
            <mxPoint x="1340" y="470" as="targetPoint" />
            <Array as="points">
              <mxPoint x="1390" y="830" />
            </Array>
          </mxGeometry>
        </mxCell>
        <mxCell id="bRxvMcQ0jLsNjaqWg4bf-4" value="EMITE" style="rhombus;whiteSpace=wrap;html=1;fillColor=#fff2cc;strokeColor=#d6b656;" vertex="1" parent="1">
          <mxGeometry x="340" y="1030" width="80" height="80" as="geometry" />
        </mxCell>
      </root>
    </mxGraphModel>
  </diagram>
</mxfile>
